<svg width="0" height="0" class="hidden">
  <symbol fill="none" xmlns="http://www.w3.org/2000/svg" viewBox="0 0 24 24" id="arrowBack">
    <path d="M3 12L10 5V9H20.2C20.48 9 20.62 9 20.727 9.0545C20.8211 9.10243 20.8976 9.17892 20.9455 9.273C21 9.37996 21 9.51997 21 9.8V14.2C21 14.48 21 14.62 20.9455 14.727C20.8976 14.8211 20.8211 14.8976 20.727 14.9455C20.62 15 20.48 15 20.2 15H10V19L3 12Z" stroke="#000000" stroke-width="2" stroke-linecap="round" stroke-linejoin="round"></path>
  </symbol>
  <symbol fill="none" xmlns="http://www.w3.org/2000/svg" viewBox="0 0 24 24" id="fileAttachment">
    <path d="M20 7V6.8C20 5.11984 20 4.27976 19.673 3.63803C19.3854 3.07354 18.9265 2.6146 18.362 2.32698C17.7202 2 16.8802 2 15.2 2H8.8C7.11984 2 6.27976 2 5.63803 2.32698C5.07354 2.6146 4.6146 3.07354 4.32698 3.63803C4 4.27976 4 5.11984 4 6.8V17.2C4 18.8802 4 19.7202 4.32698 20.362C4.6146 20.9265 5.07354 21.3854 5.63803 21.673C6.27976 22 7.11984 22 8.8 22H12.5M12.5 11H8M11.5 15H8M16 7H8M18 18V12.5C18 11.6716 18.6716 11 19.5 11C20.3284 11 21 11.6716 21 12.5V18C21 19.6569 19.6569 21 18 21C16.3431 21 15 19.6569 15 18V14" stroke="#000000" stroke-width="2" stroke-linecap="round" stroke-linejoin="round"></path>
  </symbol>
  <symbol fill="none" xmlns="http://www.w3.org/2000/svg" viewBox="0 0 24 24" id="fileCode">
    <path d="M14 2.26953V6.40007C14 6.96012 14 7.24015 14.109 7.45406C14.2049 7.64222 14.3578 7.7952 14.546 7.89108C14.7599 8.00007 15.0399 8.00007 15.6 8.00007H19.7305M14 17.5L16.5 15L14 12.5M10 12.5L7.5 15L10 17.5M20 9.98822V17.2C20 18.8802 20 19.7202 19.673 20.362C19.3854 20.9265 18.9265 21.3854 18.362 21.673C17.7202 22 16.8802 22 15.2 22H8.8C7.11984 22 6.27976 22 5.63803 21.673C5.07354 21.3854 4.6146 20.9265 4.32698 20.362C4 19.7202 4 18.8802 4 17.2V6.8C4 5.11984 4 4.27976 4.32698 3.63803C4.6146 3.07354 5.07354 2.6146 5.63803 2.32698C6.27976 2 7.11984 2 8.8 2H12.0118C12.7455 2 13.1124 2 13.4577 2.08289C13.7638 2.15638 14.0564 2.27759 14.3249 2.44208C14.6276 2.6276 14.887 2.88703 15.4059 3.40589L18.5941 6.59411C19.113 7.11297 19.3724 7.3724 19.5579 7.67515C19.7224 7.94356 19.8436 8.2362 19.9171 8.5423C20 8.88757 20 9.25445 20 9.98822Z" stroke="#000000" stroke-width="2" stroke-linecap="round" stroke-linejoin="round"></path>
  </symbol>
  <symbol fill="none" xmlns="http://www.w3.org/2000/svg" viewBox="0 0 24 24" id="fileResume">
    <path d="M20 12.5V6.8C20 5.11984 20 4.27976 19.673 3.63803C19.3854 3.07354 18.9265 2.6146 18.362 2.32698C17.7202 2 16.8802 2 15.2 2H8.8C7.11984 2 6.27976 2 5.63803 2.32698C5.07354 2.6146 4.6146 3.07354 4.32698 3.63803C4 4.27976 4 5.11984 4 6.8V17.2C4 18.8802 4 19.7202 4.32698 20.362C4.6146 20.9265 5.07354 21.3854 5.63803 21.673C6.27976 22 7.1198 22 8.79986 22H12.5M14 11H8M10 15H8M16 7H8M15 19L18 22M18 22L21 19M18 22V16" stroke="#000000" stroke-width="2" stroke-linecap="round" stroke-linejoin="round"></path>
  </symbol>
  <symbol fill="none" xmlns="http://www.w3.org/2000/svg" viewBox="0 0 24 24" id="github">
    <path d="M12 22C17.5228 22 22 17.5228 22 12C22 6.47715 17.5228 2 12 2C6.47715 2 2 6.47715 2 12C2 17.5228 6.47715 22 12 22Z" stroke="#000000" stroke-width="1.5" stroke-linecap="round" stroke-linejoin="round"></path>
    <path d="M14.3333 19V17.137C14.3583 16.8275 14.3154 16.5163 14.2073 16.2242C14.0993 15.9321 13.9286 15.6657 13.7067 15.4428C15.8 15.2156 18 14.4431 18 10.8989C17.9998 9.99256 17.6418 9.12101 17 8.46461C17.3039 7.67171 17.2824 6.79528 16.94 6.01739C16.94 6.01739 16.1533 5.7902 14.3333 6.97811C12.8053 6.57488 11.1947 6.57488 9.66666 6.97811C7.84666 5.7902 7.05999 6.01739 7.05999 6.01739C6.71757 6.79528 6.69609 7.67171 6.99999 8.46461C6.35341 9.12588 5.99501 10.0053 5.99999 10.9183C5.99999 14.4366 8.19999 15.2091 10.2933 15.4622C10.074 15.6829 9.90483 15.9461 9.79686 16.2347C9.68889 16.5232 9.64453 16.8306 9.66666 17.137V19" stroke="#000000" stroke-width="1.5" stroke-linecap="round" stroke-linejoin="round"></path>
    <path d="M9.66667 17.7018C7.66667 18.3335 6 17.7018 5 15.7544" stroke="#000000" stroke-width="1.5" stroke-linecap="round" stroke-linejoin="round"></path>
  </symbol>
  <symbol fill="none" xmlns="http://www.w3.org/2000/svg" viewBox="0 0 24 24" id="home">
    <path d="M12.9823 2.76424C12.631 2.49099 12.4553 2.35436 12.2613 2.30184C12.0902 2.2555 11.9098 2.2555 11.7387 2.30184C11.5447 2.35436 11.369 2.49099 11.0177 2.76424L4.23539 8.03937C3.78202 8.39199 3.55534 8.5683 3.39203 8.7891C3.24737 8.98469 3.1396 9.20503 3.07403 9.4393C3 9.70376 3 9.99094 3 10.5653V17.8002C3 18.9203 3 19.4804 3.21799 19.9082C3.40973 20.2845 3.71569 20.5905 4.09202 20.7822C4.51984 21.0002 5.0799 21.0002 6.2 21.0002H8.2C8.48003 21.0002 8.62004 21.0002 8.727 20.9457C8.82108 20.8978 8.89757 20.8213 8.9455 20.7272C9 20.6203 9 20.4803 9 20.2002V13.6002C9 13.0402 9 12.7601 9.10899 12.5462C9.20487 12.3581 9.35785 12.2051 9.54601 12.1092C9.75992 12.0002 10.0399 12.0002 10.6 12.0002H13.4C13.9601 12.0002 14.2401 12.0002 14.454 12.1092C14.6422 12.2051 14.7951 12.3581 14.891 12.5462C15 12.7601 15 13.0402 15 13.6002V20.2002C15 20.4803 15 20.6203 15.0545 20.7272C15.1024 20.8213 15.1789 20.8978 15.273 20.9457C15.38 21.0002 15.52 21.0002 15.8 21.0002H17.8C18.9201 21.0002 19.4802 21.0002 19.908 20.7822C20.2843 20.5905 20.5903 20.2845 20.782 19.9082C21 19.4804 21 18.9203 21 17.8002V10.5653C21 9.99094 21 9.70376 20.926 9.4393C20.8604 9.20503 20.7526 8.98469 20.608 8.7891C20.4447 8.5683 20.218 8.39199 19.7646 8.03937L12.9823 2.76424Z" stroke="#000000" stroke-width="2" stroke-linecap="round" stroke-linejoin="round"></path>
  </symbol>
  <symbol xmlns="http://www.w3.org/2000/svg" viewBox="0 0 48 48" id="information">
    <title>information-circle</title>
    <g id="Layer_2">
      <g id="invisible_box">
        <rect width="48" height="48" fill="none"></rect>
      </g>
      <g id="icons_Q2">
        <path d="M24,2A22,22,0,1,0,46,24,21.9,21.9,0,0,0,24,2Zm0,40A18,18,0,1,1,42,24,18.1,18.1,0,0,1,24,42Z"></path>
        <path d="M24,20a2,2,0,0,0-2,2V34a2,2,0,0,0,4,0V22A2,2,0,0,0,24,20Z"></path>
        <circle cx="24" cy="14" r="2"></circle>
      </g>
    </g>
  </symbol>
  <symbol fill="#000000" version="1.1" xmlns="http://www.w3.org/2000/svg" viewBox="0 0 32 32" id="lightbulb">
    <title>lightbulb-on</title>
    <path d="M20 24.75h-8c-0.69 0-1.25 0.56-1.25 1.25v2c0 0 0 0 0 0 0 0.345 0.14 0.658 0.366 0.885l2 2c0.226 0.226 0.538 0.365 0.883 0.365 0 0 0.001 0 0.001 0h4c0 0 0.001 0 0.002 0 0.345 0 0.657-0.14 0.883-0.365l2-2c0.226-0.226 0.365-0.538 0.365-0.883 0-0.001 0-0.001 0-0.002v0-2c-0.001-0.69-0.56-1.249-1.25-1.25h-0zM18.75 27.482l-1.268 1.268h-2.965l-1.268-1.268v-0.232h5.5zM27.125 12.558c0.003-0.098 0.005-0.214 0.005-0.329 0-2.184-0.654-4.216-1.778-5.91l0.025 0.040c-1.919-3.252-5.328-5.447-9.263-5.644l-0.027-0.001h-0.071c-3.934 0.165-7.338 2.292-9.274 5.423l-0.028 0.049c-1.17 1.687-1.869 3.777-1.869 6.031 0 0.012 0 0.025 0 0.037v-0.002c0.184 2.294 0.923 4.383 2.081 6.176l-0.032-0.052c0.322 0.555 0.664 1.102 1.006 1.646 0.671 0.991 1.314 2.13 1.862 3.322l0.062 0.151c0.194 0.455 0.637 0.768 1.153 0.768 0 0 0.001 0 0.001 0h-0c0.173-0 0.338-0.035 0.489-0.099l-0.008 0.003c0.455-0.194 0.768-0.638 0.768-1.155 0-0.174-0.036-0.34-0.1-0.49l0.003 0.008c-0.669-1.481-1.374-2.739-2.173-3.929l0.060 0.095c-0.327-0.523-0.654-1.044-0.962-1.575-0.939-1.397-1.557-3.083-1.71-4.901l-0.003-0.038c0.019-1.735 0.565-3.338 1.485-4.662l-0.018 0.027c1.512-2.491 4.147-4.17 7.185-4.332l0.022-0.001h0.052c3.071 0.212 5.697 1.934 7.162 4.423l0.023 0.042c0.864 1.293 1.378 2.883 1.378 4.593 0 0.053-0 0.107-0.002 0.16l0-0.008c-0.22 1.839-0.854 3.496-1.807 4.922l0.026-0.041c-0.287 0.487-0.588 0.968-0.889 1.446-0.716 1.066-1.414 2.298-2.020 3.581l-0.074 0.175c-0.067 0.148-0.106 0.321-0.106 0.503 0 0.69 0.56 1.25 1.25 1.25 0.512 0 0.952-0.308 1.146-0.749l0.003-0.008c0.625-1.33 1.264-2.452 1.978-3.52l-0.060 0.096c0.313-0.498 0.625-0.998 0.924-1.502 1.131-1.708 1.891-3.756 2.12-5.961l0.005-0.058zM15.139 5.687c-0.199-0.438-0.633-0.737-1.136-0.737-0.188 0-0.365 0.041-0.525 0.116l0.008-0.003c-2.463 1.415-4.215 3.829-4.711 6.675l-0.008 0.057c-0.011 0.061-0.017 0.132-0.017 0.204 0 0.617 0.447 1.129 1.035 1.231l0.007 0.001c0.063 0.011 0.135 0.018 0.209 0.018h0c0.615-0.001 1.126-0.446 1.23-1.031l0.001-0.008c0.366-2.067 1.575-3.797 3.252-4.852l0.030-0.017c0.437-0.2 0.735-0.634 0.735-1.138 0-0.187-0.041-0.364-0.115-0.523l0.003 0.008zM1.441 3.118l4 2c0.16 0.079 0.348 0.126 0.546 0.126 0.69 0 1.25-0.56 1.25-1.25 0-0.482-0.273-0.9-0.672-1.109l-0.007-0.003-4-2c-0.16-0.079-0.348-0.126-0.546-0.126-0.69 0-1.25 0.56-1.25 1.25 0 0.482 0.273 0.9 0.672 1.109l0.007 0.003zM26 5.25c0.001 0 0.001 0 0.002 0 0.203 0 0.395-0.049 0.564-0.135l-0.007 0.003 4-2c0.407-0.212 0.679-0.63 0.679-1.112 0-0.69-0.56-1.25-1.25-1.25-0.199 0-0.387 0.046-0.554 0.129l0.007-0.003-4 2c-0.413 0.21-0.69 0.631-0.69 1.118 0 0.69 0.559 1.25 1.249 1.25h0zM30.559 20.883l-4-2c-0.163-0.083-0.355-0.132-0.559-0.132-0.69 0-1.249 0.559-1.249 1.249 0 0.486 0.278 0.908 0.683 1.114l0.007 0.003 4 2c0.163 0.083 0.355 0.132 0.559 0.132 0.69 0 1.249-0.559 1.249-1.249 0-0.486-0.278-0.908-0.683-1.114l-0.007-0.003zM5.561 18.867l-3.913 1.83c-0.428 0.205-0.718 0.634-0.718 1.131 0 0.691 0.56 1.25 1.25 1.25 0.191 0 0.372-0.043 0.534-0.119l-0.008 0.003 3.913-1.83c0.428-0.205 0.718-0.634 0.718-1.131 0-0.691-0.56-1.25-1.25-1.25-0.191 0-0.372 0.043-0.534 0.119l0.008-0.003zM2 13.25h1c0.69 0 1.25-0.56 1.25-1.25s-0.56-1.25-1.25-1.25v0h-1c-0.69 0-1.25 0.56-1.25 1.25s0.56 1.25 1.25 1.25v0zM30 10.75h-1c-0.69 0-1.25 0.56-1.25 1.25s0.56 1.25 1.25 1.25v0h1c0.69 0 1.25-0.56 1.25-1.25s-0.56-1.25-1.25-1.25v0z"></path>
  </symbol>
  <symbol fill="#000000" xmlns="http://www.w3.org/2000/svg" preserveAspectRatio="xMinYMin" viewBox="-2 -2 24 24" id="linkedin">
    <path d="M15 11.13v3.697h-2.143v-3.45c0-.866-.31-1.457-1.086-1.457-.592 0-.945.398-1.1.784-.056.138-.071.33-.071.522v3.601H8.456s.029-5.842 0-6.447H10.6v.913l-.014.021h.014v-.02c.285-.44.793-1.066 1.932-1.066 1.41 0 2.468.922 2.468 2.902zM6.213 5.271C5.48 5.271 5 5.753 5 6.385c0 .62.466 1.115 1.185 1.115h.014c.748 0 1.213-.496 1.213-1.115-.014-.632-.465-1.114-1.199-1.114zm-1.086 9.556h2.144V8.38H5.127v6.447z"></path>
    <path d="M4 2a2 2 0 0 0-2 2v12a2 2 0 0 0 2 2h12a2 2 0 0 0 2-2V4a2 2 0 0 0-2-2H4zm0-2h12a4 4 0 0 1 4 4v12a4 4 0 0 1-4 4H4a4 4 0 0 1-4-4V4a4 4 0 0 1 4-4z"></path>
  </symbol>
  <symbol fill="none" xmlns="http://www.w3.org/2000/svg" viewBox="0 0 24 24" id="email">
    <path d="M21.5 18L14.8571 12M9.14286 12L2.50003 18M2 7L10.1649 12.7154C10.8261 13.1783 11.1567 13.4097 11.5163 13.4993C11.8339 13.5785 12.1661 13.5785 12.4837 13.4993C12.8433 13.4097 13.1739 13.1783 13.8351 12.7154L22 7M6.8 20H17.2C18.8802 20 19.7202 20 20.362 19.673C20.9265 19.3854 21.3854 18.9265 21.673 18.362C22 17.7202 22 16.8802 22 15.2V8.8C22 7.11984 22 6.27976 21.673 5.63803C21.3854 5.07354 20.9265 4.6146 20.362 4.32698C19.7202 4 18.8802 4 17.2 4H6.8C5.11984 4 4.27976 4 3.63803 4.32698C3.07354 4.6146 2.6146 5.07354 2.32698 5.63803C2 6.27976 2 7.11984 2 8.8V15.2C2 16.8802 2 17.7202 2.32698 18.362C2.6146 18.9265 3.07354 19.3854 3.63803 19.673C4.27976 20 5.11984 20 6.8 20Z" stroke="#000000" stroke-width="2" stroke-linecap="round" stroke-linejoin="round"></path>
  </symbol>
  <symbol fill="none" xmlns="http://www.w3.org/2000/svg" viewBox="0 0 24 24" id="menu">
    <path d="M3 12H21M3 6H21M3 18H21" stroke="#000000" stroke-width="2" stroke-linecap="round" stroke-linejoin="round"></path>
  </symbol>
  <symbol fill="#000000" version="1.1" xmlns="http://www.w3.org/2000/svg" viewBox="0 0 32 32" id="paperPlane">
    <title>paper-plane</title>
    <path d="M31.117 1.445c-0.009-0.018-0.026-0.029-0.036-0.046-0.069-0.131-0.155-0.243-0.258-0.338l-0.001-0.001c-0.028-0.019-0.063-0.039-0.098-0.057l-0.007-0.003c-0.021-0.015-0.029-0.043-0.052-0.057-0.030-0.019-0.067-0.013-0.099-0.030-0.131-0.071-0.285-0.12-0.448-0.136l-0.005-0c-0.035-0.007-0.079-0.013-0.123-0.016l-0.004-0c-0.211 0.001-0.409 0.055-0.582 0.15l0.006-0.003c-0.010 0.005-0.022 0.002-0.032 0.008l-27.999 16c-0.379 0.219-0.63 0.623-0.63 1.085 0 0.5 0.294 0.932 0.719 1.132l0.008 0.003 9.273 4.28v6.585c0 0.473 0.263 0.884 0.65 1.096l0.007 0.003c0.172 0.095 0.376 0.15 0.594 0.15 0.255 0 0.492-0.077 0.69-0.208l-0.005 0.003 6.027-3.955 8.764 4.045c0.153 0.072 0.333 0.115 0.523 0.115 0.659 0 1.198-0.509 1.246-1.156l0-0.004 2-28.001c0.002-0.023-0.013-0.042-0.013-0.065 0.001-0.016 0.001-0.035 0.001-0.054 0-0.191-0.043-0.372-0.121-0.533l0.003 0.007zM24.16 6.777l-12.511 14.3-6.922-3.195zM13.25 27.686v-3.117l2.788 1.287zM26.883 28.107l-7.663-3.537c-0.026-0.014-0.038-0.042-0.065-0.055l-5.115-2.373 14.448-16.514z"></path>
  </symbol>
</svg>